<svg width="36" height="36" viewBox="0 0 36 36" fill="none" xmlns="http://www.w3.org/2000/svg">
<path d="M34.5968 7.50714C33.2973 5.96239 30.8981 5.33228 26.3161 5.33228H9.68354C4.99668 5.33228 2.55681 6.00304 1.26221 7.64766C0 9.25117 0 11.6138 0 14.8838V21.1163C0 27.4513 1.4976 30.6677 9.68354 30.6677H26.3162C30.2897 30.6677 32.4915 30.1117 33.9159 28.7484C35.3767 27.3505 36 25.0679 36 21.1163V14.8838C36 11.4353 35.9023 9.05874 34.5968 7.50714ZM23.1121 18.8605L15.5593 22.8078C15.3905 22.8961 15.2058 22.9399 15.0214 22.9399C14.8126 22.9399 14.6043 22.8837 14.4197 22.7719C14.0723 22.5614 13.8601 22.1848 13.8601 21.7786V13.9092C13.8601 13.5037 14.0717 13.1274 14.4185 12.9168C14.7653 12.7061 15.1968 12.6917 15.5566 12.8787L23.1094 16.8006C23.4937 17.0001 23.735 17.3968 23.7356 17.8296C23.7361 18.2628 23.4958 18.6601 23.1121 18.8605Z" fill="#FF0000"/>
</svg>
