<svg width="42" height="42" viewBox="0 0 42 42" fill="none" xmlns="http://www.w3.org/2000/svg">
<rect x="1" y="1" width="40" height="40" rx="12" stroke="#282828"/>
<path d="M25.8053 9C25.8628 9 25.9203 9 25.981 9C26.1221 10.8316 25.457 12.2003 24.6488 13.1914C23.8558 14.1756 22.7698 15.1302 21.0134 14.9854C20.8963 13.1799 21.5624 11.9128 22.3695 10.924C23.1181 10.0025 24.4904 9.18248 25.8053 9Z" fill="#282828"/>
<path d="M31 26.6912C31 26.7078 31 26.7224 31 26.738C30.5099 28.1733 29.8107 29.4034 28.9576 30.545C28.1787 31.5814 27.2243 32.976 25.5201 32.976C24.0475 32.976 23.0694 32.0605 21.5602 32.0355C19.9637 32.0105 19.0857 32.8011 17.6261 33C17.4591 33 17.2921 33 17.1284 33C16.0566 32.85 15.1915 32.0292 14.5613 31.2897C12.7031 29.1045 11.2672 26.2818 11 22.6696C11 22.3155 11 21.9624 11 21.6083C11.1131 19.0231 12.4123 16.9212 14.1391 15.9025C15.0504 15.3609 16.3032 14.8995 17.6983 15.1057C18.2961 15.1953 18.9069 15.3932 19.4423 15.589C19.9497 15.7775 20.5842 16.1119 21.1853 16.0942C21.5925 16.0827 21.9975 15.8775 22.408 15.7328C23.6101 15.313 24.7886 14.8318 26.342 15.0578C28.2089 15.3307 29.5339 16.1327 30.3526 17.3701C28.7733 18.3419 27.5248 19.8064 27.7381 22.3072C27.9277 24.5789 29.2937 25.9079 31 26.6912Z" fill="#282828"/>
</svg>
