<svg width="70" height="40" viewBox="0 0 70 40" fill="none" xmlns="http://www.w3.org/2000/svg">
<rect width="70" height="40" rx="20" fill="#F7F7F7"/>
<path d="M42.4257 12C38.951 12 35.8313 13.8259 35.8313 17.1765C35.8313 21.0353 41.3422 21.2988 41.3422 23.2188C41.3422 24.0282 40.4081 24.7624 38.8389 24.7624C36.5972 24.7624 34.9159 23.7459 34.9159 23.7459L34.2061 27.1341C34.2061 27.1341 36.1302 28 38.7082 28C42.5191 28 45.508 26.0988 45.508 22.6729C45.508 18.6071 39.9785 18.3435 39.9785 16.5553C39.9785 15.9153 40.7444 15.2188 42.3136 15.2188C44.0883 15.2188 45.5454 15.9529 45.5454 15.9529L46.2552 12.6776C46.2366 12.6776 44.6487 12 42.4257 12ZM10.5934 12.2447L10.5 12.7341C10.5 12.7341 11.9571 12.9976 13.2835 13.5435C14.9834 14.1647 15.0955 14.5224 15.3944 15.6329L18.5141 27.7365H22.6986L29.1062 12.2447H24.9403L20.8119 22.7859L19.1306 13.8447C18.9811 12.8282 18.1965 12.2447 17.2251 12.2447H10.5934ZM30.7875 12.2447L27.5183 27.7365H31.4973L34.7478 12.2447H30.7875ZM52.943 12.2447C51.9903 12.2447 51.4859 12.7529 51.1123 13.6565L45.2838 27.7365H49.4497L50.253 25.3835H55.3342L55.8199 27.7365H59.5L56.3056 12.2447H52.943ZM53.4848 16.4424L54.7177 22.2588H51.4112L53.4848 16.4424Z" fill="#1434CB"/>
</svg>
