<svg width="161" height="28" viewBox="0 0 161 28" fill="none" xmlns="http://www.w3.org/2000/svg">
<path d="M23.5582 17.8426C23.5366 17.7692 23.4964 17.7026 23.4415 17.6493C23.3867 17.596 23.319 17.5577 23.245 17.5382C22.978 17.5023 19.6775 16.5273 19.5307 16.6251C19.5474 16.6124 16.1489 17.5168 16.0457 17.5382C15.9711 17.5563 15.9026 17.5941 15.8475 17.6476C15.7924 17.7012 15.7527 17.7685 15.7325 17.8426C15.5552 18.2089 14.7812 22.6659 17.1177 24.8125C17.7873 25.4724 18.6081 25.9585 19.5086 26.2285C19.596 26.2572 19.6902 26.2572 19.7776 26.2285C25.3271 24.4464 23.5759 17.9088 23.5582 17.8426ZM19.8306 24.4508C19.773 24.4792 19.7096 24.4939 19.6453 24.4939C19.5811 24.4939 19.5177 24.4792 19.4601 24.4508C16.9897 23.3127 16.9368 20.6923 17.1309 19.2322C17.1422 19.1456 17.1788 19.0643 17.2361 18.9984C17.2934 18.9325 17.3688 18.8849 17.4529 18.8616L19.5306 18.319C19.5463 18.2086 21.7403 18.858 21.8334 18.8616C21.9184 18.884 21.9949 18.9312 22.053 18.9972C22.1111 19.0632 22.1483 19.145 22.1598 19.2322C22.3495 20.6923 22.301 23.3127 19.8306 24.4508Z" fill="#282828"/>
<path d="M19.6454 19.2012L17.9735 19.6423C17.8632 20.8466 18.0087 22.6817 19.6454 23.5596C21.282 22.6817 21.4231 20.8466 21.3172 19.6423L19.6454 19.2012Z" fill="#282828"/>
<path d="M9.90954 6.7171H14.3032C14.4974 6.71683 14.6835 6.63959 14.8207 6.50231C14.958 6.36504 15.0352 6.17893 15.0355 5.9848C15.0289 4.51758 15.2759 4.14233 13.5709 3.96005L13.5709 3.21008C13.5703 2.82267 13.4159 2.45136 13.1417 2.17767C12.8676 1.90397 12.496 1.75024 12.1086 1.75024C11.7212 1.75024 11.3496 1.90397 11.0754 2.17767C10.8013 2.45136 10.6469 2.82267 10.6462 3.21008V3.96002C10.0492 4.05695 9.18891 4.07398 9.17728 4.83789V5.9848C9.17829 6.1787 9.25576 6.36437 9.39287 6.50148C9.52997 6.63859 9.71564 6.71608 9.90954 6.7171ZM12.1064 2.41604C12.327 2.41779 12.5379 2.50663 12.6932 2.66322C12.8486 2.8198 12.9357 3.03143 12.9357 3.252C12.9357 3.47256 12.8486 3.68419 12.6932 3.84077C12.5379 3.99735 12.3269 4.08619 12.1064 4.08793C11.886 4.08598 11.6752 3.99704 11.52 3.84048C11.3649 3.68392 11.2778 3.47241 11.2778 3.25198C11.2778 3.03155 11.3649 2.82004 11.5201 2.66348C11.6752 2.50693 11.886 2.41799 12.1064 2.41604Z" fill="#282828"/>
<path d="M14.8811 17.6044C14.9436 17.3821 15.0632 17.18 15.228 17.0182C15.3929 16.8564 15.5972 16.7407 15.8207 16.6825L19.1646 15.809C19.449 15.7089 19.7578 15.7012 20.0468 15.787V6.74372C20.0467 6.17943 19.8228 5.63823 19.4242 5.23881C19.0256 4.83938 18.4849 4.61434 17.9206 4.61304H15.9046C15.9343 4.99648 15.9104 5.60199 15.9178 5.98496C15.9176 6.41311 15.7474 6.82365 15.4447 7.1264C15.1419 7.42914 14.7314 7.59931 14.3033 7.59952H9.90952C9.48139 7.59931 9.07084 7.42913 8.7681 7.12639C8.46537 6.82365 8.2952 6.4131 8.295 5.98496C8.30321 5.61195 8.27844 4.98921 8.30821 4.61307L6.29224 4.61305C5.72818 4.61509 5.18788 4.84037 4.78945 5.23964C4.39101 5.6389 4.16686 6.17967 4.16599 6.74373V22.6863C4.16704 23.2499 4.39139 23.7901 4.78991 24.1886C5.18843 24.5871 5.72864 24.8115 6.29224 24.8125H15.9266C15.716 24.5361 15.5314 24.2407 15.3752 23.9303C13.9327 21.0982 14.8679 17.6574 14.8811 17.6044ZM13.4121 10.3522H17.6294C17.7453 10.3539 17.8558 10.4011 17.9372 10.4837C18.0186 10.5662 18.0642 10.6774 18.0642 10.7934C18.0642 10.9093 18.0186 11.0205 17.9372 11.1031C17.8558 11.1856 17.7453 11.2328 17.6294 11.2345H13.4121C13.2961 11.233 13.1854 11.1858 13.1039 11.1033C13.0224 11.0207 12.9767 10.9094 12.9767 10.7934C12.9767 10.6773 13.0224 10.566 13.1039 10.4834C13.1854 10.4009 13.2961 10.3537 13.4121 10.3522ZM10.2448 10.3522H11.5153C11.6313 10.3537 11.742 10.4009 11.8235 10.4834C11.905 10.566 11.9507 10.6773 11.9507 10.7934C11.9507 10.9094 11.905 11.0207 11.8235 11.1033C11.742 11.1858 11.6313 11.233 11.5153 11.2345H10.2448C10.1289 11.2328 10.0183 11.1856 9.93695 11.1031C9.85559 11.0205 9.80998 10.9093 9.80998 10.7934C9.80998 10.6774 9.85559 10.5662 9.93695 10.4837C10.0183 10.4011 10.1289 10.3539 10.2448 10.3522ZM10.2448 15.1253H15.9398C16.0557 15.127 16.1662 15.1743 16.2475 15.2568C16.3288 15.3394 16.3743 15.4506 16.3743 15.5664C16.3743 15.6823 16.3287 15.7935 16.2474 15.876C16.1661 15.9586 16.0556 16.0058 15.9398 16.0076H10.2448C10.1288 16.006 10.0181 15.9588 9.93664 15.8763C9.85518 15.7937 9.8095 15.6824 9.8095 15.5664C9.8095 15.4504 9.85518 15.3391 9.93664 15.2565C10.0181 15.174 10.1288 15.1268 10.2448 15.1253ZM9.09343 18.8881L7.90237 20.5953C7.8656 20.648 7.81769 20.6919 7.76203 20.7239C7.70638 20.7559 7.64435 20.7753 7.58037 20.7806C7.51584 20.7854 7.45102 20.7765 7.39018 20.7545C7.32935 20.7324 7.27388 20.6977 7.22744 20.6526L6.41575 19.841C6.33612 19.7573 6.29243 19.6458 6.29405 19.5304C6.29567 19.4149 6.34248 19.3046 6.42442 19.2233C6.50637 19.1419 6.61694 19.0959 6.73243 19.0951C6.84791 19.0943 6.95911 19.1388 7.04218 19.219L7.47888 19.6557L8.36997 18.3852C8.43747 18.2913 8.53918 18.2278 8.65315 18.2082C8.76713 18.1886 8.88423 18.2146 8.97918 18.2806C9.07414 18.3466 9.13934 18.4473 9.16071 18.561C9.18209 18.6746 9.15792 18.7921 9.09343 18.8881ZM9.09343 14.1151L7.90237 15.8178C7.86583 15.8713 7.81794 15.916 7.76212 15.9488C7.70629 15.9816 7.64391 16.0017 7.57943 16.0076C7.51495 16.0135 7.44997 16.0051 7.38912 15.983C7.32826 15.9608 7.27305 15.9255 7.22742 15.8796L6.41575 15.0679C6.33556 14.9844 6.29141 14.8727 6.29279 14.7569C6.29418 14.6411 6.341 14.5305 6.42317 14.4489C6.50534 14.3674 6.61627 14.3213 6.73206 14.3208C6.84784 14.3202 6.95922 14.3651 7.04217 14.4459L7.47887 14.8826L8.36997 13.6078C8.43855 13.5152 8.54058 13.453 8.65433 13.4345C8.76807 13.4161 8.88453 13.4428 8.97888 13.5089C9.07322 13.5751 9.138 13.6755 9.1594 13.7887C9.1808 13.9019 9.15713 14.019 9.09343 14.1151ZM9.09343 9.33758L7.90237 11.0448C7.86561 11.0974 7.8177 11.1413 7.76204 11.1733C7.70639 11.2054 7.64436 11.2247 7.58037 11.23C7.51569 11.2369 7.45031 11.2289 7.38916 11.2068C7.32802 11.1846 7.27272 11.1488 7.22744 11.1021L6.41577 10.2904C6.33609 10.2068 6.29235 10.0953 6.29395 9.97978C6.29555 9.86428 6.34235 9.754 6.42433 9.67261C6.5063 9.59123 6.6169 9.54521 6.73241 9.54443C6.84792 9.54366 6.95914 9.58819 7.04219 9.66847L7.47889 10.1052L8.36999 8.8347C8.43761 8.74112 8.53927 8.67782 8.65309 8.65843C8.76691 8.63903 8.88379 8.66509 8.97859 8.73099C9.0734 8.79689 9.13855 8.89737 9.16002 9.01082C9.1815 9.12426 9.15759 9.24158 9.09343 9.33758ZM13.6151 20.785H10.2448C10.1289 20.7833 10.0184 20.7361 9.93705 20.6535C9.85572 20.571 9.81013 20.4597 9.81014 20.3439C9.81014 20.228 9.85573 20.1168 9.93707 20.0342C10.0184 19.9517 10.1289 19.9045 10.2448 19.9027H13.6151C13.7309 19.9045 13.8413 19.9518 13.9226 20.0343C14.0039 20.1169 14.0494 20.228 14.0494 20.3439C14.0494 20.4597 14.0039 20.5709 13.9226 20.6534C13.8413 20.736 13.7309 20.7832 13.6151 20.785Z" fill="#282828"/>
<path d="M41.7422 9.83008H38.6045V11.833C38.9964 11.6644 39.3838 11.5801 39.7666 11.5801C40.5231 11.5801 41.1611 11.8512 41.6807 12.3936C42.2139 12.945 42.4805 13.6514 42.4805 14.5127C42.4805 15.1735 42.3164 15.7751 41.9883 16.3174C41.7148 16.764 41.3434 17.1058 40.874 17.3428C40.4274 17.5706 39.9375 17.6846 39.4043 17.6846C38.5384 17.6846 37.8229 17.402 37.2578 16.8369C36.957 16.5361 36.6995 16.1077 36.4854 15.5518L38.0439 14.9639C38.3037 15.6475 38.7389 15.9893 39.3496 15.9893C39.7507 15.9893 40.0811 15.8434 40.3408 15.5518C40.5915 15.2738 40.7168 14.9388 40.7168 14.5469C40.7168 14.1641 40.5938 13.8314 40.3477 13.5488C40.0788 13.2526 39.7415 13.1045 39.3359 13.1045C38.862 13.1045 38.4655 13.3164 38.1465 13.7402H36.9707V8.20996H41.7422V9.83008ZM55.1543 8.16895L52.085 13.3848V17.5H50.1709V13.3848L47.0469 8.16895H49.3232L51.1348 11.4023L52.9121 8.16895H55.1543ZM60.8486 9.73438H57.5742V12.0312H60.8486V13.5967H57.5742V15.9346H60.8486V17.5H55.6602V8.16895H60.8486V9.73438ZM68.2178 17.5L67.6982 15.8867H64.1025L63.5488 17.5H61.5186L64.7451 8.16895H67.1377L70.3232 17.5H68.2178ZM64.5947 14.3145H67.1924L65.9004 10.4521L64.5947 14.3145ZM75.8057 17.5L73.249 13.7881V17.5H71.335V8.16895H74.2061C75.3773 8.16895 76.2591 8.41504 76.8516 8.90723C77.084 9.08952 77.2686 9.31283 77.4053 9.57715C77.6514 10.0374 77.7744 10.5456 77.7744 11.1016C77.7744 11.9902 77.4919 12.6966 76.9268 13.2207C76.5758 13.5443 76.1201 13.7767 75.5596 13.918L78.1299 17.5H75.8057ZM73.249 9.75488V12.667H74.124C74.6208 12.667 75.015 12.5622 75.3066 12.3525C75.6576 12.0928 75.833 11.71 75.833 11.2041C75.833 10.7803 75.7054 10.4362 75.4502 10.1719C75.1859 9.89388 74.7962 9.75488 74.2812 9.75488H73.249ZM78.9707 14.7725H80.8369C80.8369 15.0186 80.8665 15.2031 80.9258 15.3262C81.0306 15.5312 81.1969 15.6953 81.4248 15.8184C81.639 15.9277 81.8691 15.9824 82.1152 15.9824C82.4798 15.9824 82.7874 15.8753 83.0381 15.6611C83.2432 15.4743 83.3457 15.2487 83.3457 14.9844C83.3457 14.6836 83.2181 14.4375 82.9629 14.2461C82.776 14.1094 82.3978 13.9385 81.8281 13.7334C80.9212 13.4144 80.2581 13.0703 79.8389 12.7012C79.3148 12.2454 79.0527 11.6165 79.0527 10.8145C79.0527 9.92578 79.3558 9.22624 79.9619 8.71582C80.527 8.23275 81.2539 7.99121 82.1426 7.99121C82.9993 7.99121 83.7057 8.22363 84.2617 8.68848C84.8633 9.20345 85.2051 9.92122 85.2871 10.8418H83.3457C83.2865 10.0716 82.8809 9.68652 82.1289 9.68652C81.7415 9.68652 81.4476 9.79362 81.2471 10.0078C81.0739 10.1947 80.9873 10.4134 80.9873 10.6641C80.9873 11.0469 81.1787 11.3431 81.5615 11.5527C81.7575 11.6576 82.1221 11.8079 82.6553 12.0039C83.3252 12.2454 83.8174 12.4688 84.1318 12.6738C84.9385 13.1934 85.3418 13.918 85.3418 14.8477C85.3418 15.832 84.959 16.584 84.1934 17.1035C83.6283 17.4863 82.9401 17.6777 82.1289 17.6777C81.1992 17.6777 80.4587 17.443 79.9072 16.9736C79.2738 16.445 78.9616 15.7113 78.9707 14.7725ZM96.9971 8.16895L98.46 14.1641L100.005 8.16895H102.001L99.3965 17.5H97.4756L95.9922 11.3887L94.5293 17.5H92.6016L90.0518 8.16895H92.082L93.5859 14.0615L95.0967 8.16895H96.9971ZM108.755 17.5L108.235 15.8867H104.64L104.086 17.5H102.056L105.282 8.16895H107.675L110.86 17.5H108.755ZM105.132 14.3145H107.729L106.438 10.4521L105.132 14.3145ZM116.343 17.5L113.786 13.7881V17.5H111.872V8.16895H114.743C115.914 8.16895 116.796 8.41504 117.389 8.90723C117.621 9.08952 117.806 9.31283 117.942 9.57715C118.188 10.0374 118.312 10.5456 118.312 11.1016C118.312 11.9902 118.029 12.6966 117.464 13.2207C117.113 13.5443 116.657 13.7767 116.097 13.918L118.667 17.5H116.343ZM113.786 9.75488V12.667H114.661C115.158 12.667 115.552 12.5622 115.844 12.3525C116.195 12.0928 116.37 11.71 116.37 11.2041C116.37 10.7803 116.243 10.4362 115.987 10.1719C115.723 9.89388 115.333 9.75488 114.818 9.75488H113.786ZM124.519 17.5L121.962 13.7881V17.5H120.048V8.16895H122.919C124.09 8.16895 124.972 8.41504 125.564 8.90723C125.797 9.08952 125.981 9.31283 126.118 9.57715C126.364 10.0374 126.487 10.5456 126.487 11.1016C126.487 11.9902 126.205 12.6966 125.64 13.2207C125.289 13.5443 124.833 13.7767 124.272 13.918L126.843 17.5H124.519ZM121.962 9.75488V12.667H122.837C123.334 12.667 123.728 12.5622 124.02 12.3525C124.37 12.0928 124.546 11.71 124.546 11.2041C124.546 10.7803 124.418 10.4362 124.163 10.1719C123.899 9.89388 123.509 9.75488 122.994 9.75488H121.962ZM133.966 17.5L133.446 15.8867H129.851L129.297 17.5H127.267L130.493 8.16895H132.886L136.071 17.5H133.966ZM130.343 14.3145H132.94L131.648 10.4521L130.343 14.3145ZM142.928 17.5L138.997 11.6006V17.5H137.083V8.16895H138.963L142.88 13.9932V8.16895H144.794V17.5H142.928ZM152.177 9.73438H149.955V17.5H148.041V9.73438H145.819V8.16895H152.177V9.73438ZM160.182 8.16895L157.112 13.3848V17.5H155.198V13.3848L152.074 8.16895H154.351L156.162 11.4023L157.939 8.16895H160.182Z" fill="#282828"/>
</svg>
